<?xml version="1.0" standalone="no"?>
<!DOCTYPE svg PUBLIC "-//W3C//DTD SVG 20010904//EN"
 "http://www.w3.org/TR/2001/REC-SVG-20010904/DTD/svg10.dtd">
<svg version="1.0" xmlns="http://www.w3.org/2000/svg"
 width="460.000000pt" height="96.000000pt" viewBox="0 0 460.000000 96.000000"
 preserveAspectRatio="xMidYMid meet">

<g transform="translate(0.000000,96.000000) scale(0.100000,-0.100000)"
fill="#000000" stroke="none">
<path d="M753 845 c-56 -24 -63 -52 -63 -256 l0 -181 34 -34 c31 -31 40 -34
90 -34 47 0 61 4 88 29 31 28 33 33 36 110 l4 81 -51 0 -51 0 0 -52 c0 -60
-11 -84 -34 -75 -14 6 -16 29 -16 167 0 150 1 160 19 160 23 0 31 -19 31 -71
l0 -39 50 0 50 0 0 55 c0 75 -19 118 -63 138 -42 20 -81 21 -124 2z"/>
<path d="M20 595 l0 -255 105 0 105 0 0 45 0 45 -50 0 -50 0 0 210 0 210 -55
0 -55 0 0 -255z"/>
<path d="M295 838 c-4 -14 -45 -452 -45 -480 0 -15 9 -18 50 -18 l50 0 0 40
c0 39 1 40 35 40 34 0 35 -1 35 -40 l0 -40 51 0 50 0 -5 43 c-3 23 -13 119
-21 212 -8 94 -18 189 -21 213 l-5 42 -85 0 c-59 0 -86 -4 -89 -12z m104 -332
c-4 -5 -15 -6 -24 -2 -13 5 -15 18 -10 83 13 170 18 178 30 48 7 -66 8 -124 4
-129z"/>
<path d="M970 595 l0 -255 110 0 110 0 0 50 0 50 -55 0 -55 0 0 60 0 60 50 0
50 0 0 44 0 45 -47 3 -48 3 -3 48 -3 47 33 1 c64 2 63 1 66 52 l3 47 -105 0
-106 0 0 -255z"/>
<path d="M1220 595 l0 -255 50 0 49 0 3 118 3 117 24 -117 24 -118 48 0 49 0
0 255 0 255 -50 0 -50 0 -1 -102 -1 -103 -20 103 -20 102 -54 0 -54 0 0 -255z"/>
<path d="M1532 613 c-12 -131 -22 -246 -22 -256 0 -15 7 -18 48 -15 47 3 47 3
50 41 3 36 5 38 35 35 29 -3 32 -6 35 -40 l3 -38 50 0 49 0 -5 38 c-5 34 -45
452 -45 466 0 3 -40 6 -88 6 l-88 0 -22 -237z m127 -50 c1 -47 -1 -53 -20 -53
-19 0 -20 4 -14 98 9 137 17 164 26 77 3 -38 7 -94 8 -122z"/>
<path d="M1943 800 c-13 -5 -23 -15 -23 -21 0 -8 5 -7 17 2 22 19 197 19 215
1 15 -15 19 -49 12 -107 -4 -36 -8 -40 -34 -42 -16 -1 -51 -13 -77 -27 -42
-21 -52 -22 -73 -11 -28 15 -38 37 -39 87 -1 20 -4 43 -7 52 -7 18 -39 21 -50
5 -4 -7 0 -9 13 -5 17 5 21 -1 30 -49 5 -30 7 -55 3 -55 -20 0 -50 47 -61 97
-11 49 -14 54 -20 33 -15 -54 -9 -194 10 -236 32 -71 236 -190 343 -201 106
-11 331 76 370 143 21 36 48 233 38 277 -6 28 -8 30 -15 12 -4 -11 -16 -40
-27 -65 -31 -74 -75 -110 -57 -48 5 18 9 48 9 66 0 30 2 32 28 27 22 -4 24 -4
7 4 -36 17 -45 12 -45 -21 -1 -49 -17 -110 -32 -119 -22 -15 -54 -10 -110 16
-57 27 -94 33 -82 13 4 -7 3 -8 -4 -4 -6 4 -20 2 -31 -3 -14 -8 -27 -6 -50 5
-29 14 -31 18 -25 57 9 64 10 66 46 63 48 -4 50 -5 43 -16 -3 -5 0 -7 8 -4 8
3 13 13 10 23 -6 25 15 39 67 44 l45 4 -47 1 c-37 2 -53 -3 -70 -20 -30 -30
-87 -30 -113 1 -19 21 -31 24 -110 27 -50 2 -100 0 -112 -6z m366 -224 c9 -8
28 -21 43 -28 19 -10 24 -18 18 -28 -6 -10 -39 -14 -130 -15 -118 -2 -122 -1
-140 23 -25 31 -25 42 -2 42 14 0 15 -2 2 -10 -8 -5 -10 -10 -4 -10 6 0 17 6
24 14 14 18 37 23 114 25 39 1 65 -4 75 -13z m76 -17 c16 -16 -29 -9 -50 8
-19 15 -19 15 10 8 17 -3 34 -11 40 -16z"/>
<path d="M2440 800 c8 -5 24 -10 36 -10 11 0 25 -5 32 -12 9 -9 12 -9 12 0 0
14 -41 32 -73 32 -18 0 -19 -2 -7 -10z"/>
<path d="M2272 670 c0 -14 2 -19 5 -12 2 6 2 18 0 25 -3 6 -5 1 -5 -13z"/>
<path d="M356 299 c-22 -17 -27 -28 -24 -57 3 -42 41 -71 74 -58 16 7 14 10
-16 19 -29 10 -36 18 -38 43 -2 24 2 33 21 41 31 14 67 -8 67 -40 0 -21 -1
-21 -13 3 -15 30 -60 35 -65 7 -6 -28 15 -44 56 -43 34 1 37 4 40 32 5 55 -57
88 -102 53z m52 -50 c-2 -6 -8 -10 -13 -10 -5 0 -11 4 -13 10 -2 6 4 11 13 11
9 0 15 -5 13 -11z"/>
<path d="M90 295 c0 -9 -9 -15 -23 -15 -29 0 -47 -18 -47 -45 0 -27 18 -45 45
-45 12 0 26 5 33 12 14 14 16 108 2 108 -5 0 -10 -7 -10 -15z m-2 -58 c4 -20
-25 -34 -40 -19 -15 15 -1 44 19 40 10 -2 19 -11 21 -21z"/>
<path d="M280 255 c0 -41 4 -57 15 -62 9 -3 19 -2 23 2 4 4 1 10 -5 12 -8 3
-13 24 -13 54 0 27 -4 49 -10 49 -5 0 -10 -25 -10 -55z"/>
<path d="M646 279 c-45 -36 -31 -78 37 -107 43 -18 32 -48 -16 -44 -49 4 -52
-24 -3 -33 89 -17 119 75 36 109 -27 11 -40 22 -40 35 0 23 25 34 50 21 26
-14 40 -12 40 5 0 15 -37 35 -64 35 -7 0 -25 -9 -40 -21z"/>
<path d="M824 281 c-60 -37 -66 -121 -12 -166 41 -35 88 -33 130 4 65 58 34
164 -53 177 -23 3 -44 -1 -65 -15z m100 -43 c24 -34 20 -73 -10 -97 -34 -27
-50 -26 -79 4 -46 45 -22 115 40 115 24 0 39 -7 49 -22z"/>
<path d="M1007 292 c-30 -6 -13 -27 26 -30 l36 -3 3 -82 c3 -69 6 -82 21 -85
16 -3 17 5 15 100 l-3 103 -40 0 c-22 0 -48 -1 -58 -3z"/>
<path d="M1248 263 c-3 -36 -5 -38 -40 -41 -25 -2 -43 -11 -53 -25 -37 -52 -4
-97 75 -105 l50 -5 0 107 c0 86 -3 106 -14 106 -10 0 -16 -13 -18 -37z m0
-105 c-2 -27 -7 -33 -27 -33 -28 0 -47 25 -38 49 4 10 18 16 37 16 29 0 31 -2
28 -32z"/>
<path d="M1380 289 c-62 -24 -82 -118 -36 -164 65 -64 176 -27 176 59 0 87
-64 135 -140 105z m88 -47 c19 -24 15 -79 -8 -102 -24 -24 -48 -25 -78 -4 -38
27 -26 113 18 126 22 7 53 -2 68 -20z"/>
<path d="M1559 273 c-1 -48 -1 -137 0 -160 2 -39 29 -25 60 30 17 28 34 59 39
67 7 11 17 -2 43 -50 19 -36 42 -66 52 -68 15 -3 17 7 17 102 0 90 -2 105 -15
100 -11 -5 -15 -23 -15 -73 l0 -66 -33 58 c-17 31 -38 57 -45 57 -6 0 -25 -25
-40 -56 l-27 -56 -5 68 c-3 41 -10 69 -17 72 -8 2 -13 -7 -14 -25z"/>
<path d="M136 264 c-9 -8 -16 -22 -16 -29 0 -33 59 -60 75 -35 4 6 -5 10 -19
10 -14 0 -26 5 -26 10 0 6 14 10 30 10 31 0 39 17 18 38 -17 17 -44 15 -62 -4z
m54 -14 c0 -5 -9 -10 -20 -10 -11 0 -20 5 -20 10 0 6 9 10 20 10 11 0 20 -4
20 -10z"/>
<path d="M474 265 c-8 -20 4 -35 27 -35 10 0 19 -4 19 -10 0 -5 -11 -10 -25
-10 -14 0 -25 -5 -25 -11 0 -6 14 -9 33 -7 26 2 32 7 32 28 0 17 -7 26 -25 31
l-25 7 28 1 c37 1 35 21 -3 21 -18 0 -33 -6 -36 -15z"/>
<path d="M1936 204 c-33 -33 -12 -95 32 -93 l27 1 -25 7 c-21 6 -25 13 -25 41
0 29 4 36 23 38 12 2 22 8 22 13 0 15 -37 10 -54 -7z"/>
<path d="M2023 194 c-15 -24 -15 -29 -2 -53 27 -49 89 -36 89 20 0 57 -57 79
-87 33z m67 -29 c0 -39 -21 -55 -45 -35 -15 13 -20 51 -8 63 3 4 17 7 30 7 20
0 23 -5 23 -35z"/>
<path d="M2140 163 c0 -29 5 -53 10 -53 6 0 10 21 10 46 0 41 2 45 23 42 18
-2 23 -10 25 -45 2 -24 7 -43 12 -43 5 0 7 12 4 26 -7 41 4 66 29 62 18 -2 23
-12 28 -48 l6 -45 1 53 c2 58 -14 75 -49 54 -11 -7 -20 -8 -24 -2 -3 6 -22 9
-41 7 l-34 -2 0 -52z"/>
<path d="M2440 210 c-11 -7 -7 -10 18 -10 22 0 32 -5 32 -15 0 -9 -9 -15 -22
-15 -33 0 -51 -14 -46 -36 2 -15 13 -19 46 -20 42 -2 42 -2 42 33 0 62 -30 89
-70 63z m48 -62 c-6 -16 -36 -34 -44 -26 -3 4 -4 14 -1 23 7 17 51 21 45 3z"/>
<path d="M2540 168 c0 -32 4 -58 10 -58 6 0 10 18 10 41 0 32 4 42 20 46 11 3
20 9 20 14 0 13 -28 11 -36 -2 -4 -8 -9 -7 -15 2 -5 9 -9 -8 -9 -43z"/>
<path d="M1836 171 c-36 -40 23 -98 62 -59 18 18 14 56 -7 68 -27 14 -35 13
-55 -9z"/>
<path d="M2338 179 c-11 -6 -18 -22 -18 -39 0 -23 5 -31 25 -36 15 -4 32 -1
40 6 21 18 19 57 -4 70 -23 12 -22 12 -43 -1z"/>
</g>
</svg>
